# xmcd CD database file
#
# Track frame offsets:
#	150
#	21676
#	59418
#	143855
#	170248
#	275435
#	286609
#
# Disc length: 4196 seconds
#
# Revision: 0
# Processed by: cddbd v1.5.1PL0 Copyright (c) Steve Scherf et al.
# Submitted via: CDex 1.51
#
DISCID=6d106207
DTITLE=Mike Ellis feat....(World Jazz Ensemble) - The Shaman`s Dance
DYEAR=2002
DGENRE=Jazz
TTITLE0=Mike Ellis - Dawn
TTITLE1=Mike Ellis - the Shaman`s Dance
TTITLE2=Mike Ellis - Canyon of the Wind
TTITLE3=Mike Ellis - Ballad of Bolot
TTITLE4=Mike Ellis - Incantation
TTITLE5=Mike Ellis - Khomuz Variations
TTITLE6=Mike Ellis - Mangoosh Song
EXTD=YEAR: 2002
EXTT0=
EXTT1=
EXTT2=
EXTT3=
EXTT4=
EXTT5=
EXTT6=
PLAYORDER=
